<svg width="16" height="16" viewBox="0 0 16 16" fill="none" xmlns="http://www.w3.org/2000/svg">
<mask id="mask0_3760_6257" style="mask-type:alpha" maskUnits="userSpaceOnUse" x="2" y="0" width="12" height="16">
<path fill-rule="evenodd" clip-rule="evenodd" d="M12 1.7H4C3.55817 1.7 3.2 2.05817 3.2 2.5V13.5C3.2 13.9418 3.55817 14.3 4 14.3H12C12.4418 14.3 12.8 13.9418 12.8 13.5V2.5C12.8 2.05817 12.4418 1.7 12 1.7ZM4 0.5C2.89543 0.5 2 1.39543 2 2.5V13.5C2 14.6046 2.89543 15.5 4 15.5H12C13.1046 15.5 14 14.6046 14 13.5V2.5C14 1.39543 13.1046 0.5 12 0.5H4Z" fill="#A7AFBD"/>
<path d="M6 12.5C6 12.2239 6.22386 12 6.5 12H9.5C9.77614 12 10 12.2239 10 12.5C10 12.7761 9.77614 13 9.5 13H6.5C6.22386 13 6 12.7761 6 12.5Z" fill="#A7AFBD"/>
</mask>
<g mask="url(#mask0_3760_6257)">
<rect width="16" height="16" fill="#A7AFBD"/>
</g>
</svg>
