<svg width="24" height="24" viewBox="0 0 24 24" fill="none" xmlns="http://www.w3.org/2000/svg">
<path fill-rule="evenodd" clip-rule="evenodd" d="M22.231 18.3354C23.1275 19.4364 23.0459 21.0375 22.042 22.0415C21.038 23.0455 19.4369 23.1271 18.3359 22.2305L9.75195 15.2388L15.2393 9.75195L22.231 18.3354ZM15.6777 14.2632C15.2872 13.873 14.6541 13.8728 14.2637 14.2632C13.8732 14.6537 13.8732 15.2872 14.2637 15.6777L15.6777 17.0918C16.0683 17.4823 16.7018 17.4823 17.0923 17.0918C17.4827 16.7013 17.4826 16.0682 17.0923 15.6777L15.6777 14.2632Z" fill="#53576A"/>
<path d="M8.39941 1.89941C11.0456 1.89946 13.321 3.48133 14.335 5.75049L5.75049 14.335C3.48127 13.321 1.89947 11.0456 1.89941 8.39941C1.89951 4.80965 4.80962 1.89941 8.39941 1.89941Z" fill="#53576A"/>
<path d="M22.2071 1.79289C21.8166 1.40237 21.1834 1.40237 20.7929 1.79289L1.79289 20.7929C1.40237 21.1834 1.40237 21.8166 1.79289 22.2071C2.18342 22.5976 2.81658 22.5976 3.20711 22.2071L22.2071 3.20711C22.5976 2.81658 22.5976 2.18342 22.2071 1.79289Z" fill="#E64040"/>
</svg>
