<svg width="24" height="24" viewBox="0 0 24 24" fill="none" xmlns="http://www.w3.org/2000/svg">
<path fill-rule="evenodd" clip-rule="evenodd" d="M22.231 18.3354C23.1275 19.4364 23.046 21.0375 22.042 22.0415C21.038 23.0455 19.4369 23.1271 18.3359 22.2305L9.75195 15.2388L15.2393 9.75195L22.231 18.3354ZM15.6777 14.2632C15.2872 13.8728 14.6541 13.8727 14.2637 14.2632C13.8731 14.6537 13.8731 15.2872 14.2637 15.6777L15.6777 17.0918C16.0683 17.4823 16.7018 17.4823 17.0923 17.0918C17.4827 16.7013 17.4826 16.0683 17.0923 15.6777L15.6777 14.2632Z" fill="#53576A"/>
<path d="M8.39941 1.89941C11.6313 1.89947 14.3115 4.25826 14.814 7.34814L7.34863 14.814C4.2585 14.3117 1.89948 11.6314 1.89941 8.39941C1.89941 4.80956 4.80956 1.89941 8.39941 1.89941Z" fill="#53576A"/>
</svg>
